Coordinates
version=1
nRows=26
nColumns=24
inDegrees=yes

Units are S.I. units (second, meters, Newtons, ...)
Angles are in degrees.

endheader
time	pelvis_tilt	pelvis_list	pelvis_rotation	pelvis_tx	pelvis_ty	pelvis_tz	hip_flexion_r	hip_adduction_r	hip_rotation_r	knee_angle_r	ankle_angle_r	subtalar_angle_r	mtp_angle_r	hip_flexion_l	hip_adduction_l	hip_rotation_l	knee_angle_l	ankle_angle_l	subtalar_angle_l	mtp_angle_l	lumbar_extension	lumbar_bending	lumbar_rotation
      3.04000000	    -10.78189485	     -2.27263096	      8.76654617	     -1.81441846	     -0.04204902	     -0.29389344	     35.99321145	     -4.74782980	    -16.56939701	    -11.32263032	     -3.40091053	     -2.05304654	     14.06093777	     -4.33665204	     -1.75217709	     -1.84854790	    -17.78632381	      9.47613309	     -3.45099378	     -5.63928013	      5.11559939	      3.85268520	    -13.17627650
      3.04500000	    -10.83005859	     -2.57901649	      8.63202375	     -1.80564600	     -0.04278346	     -0.29294690	     35.97537367	     -4.31523801	    -16.33892922	    -11.79351074	     -4.30617220	     -2.46092121	     14.48867007	     -4.35243205	     -2.30011270	     -2.20540335	    -18.54360352	      8.87415535	     -2.97745671	     -5.02403755	      5.36827331	      4.17167563	    -13.01114594
      3.05000000	    -10.93249395	     -2.92623549	      8.64471976	     -1.79696885	     -0.04341808	     -0.29218129	     36.00496074	     -3.95444620	    -16.33571334	    -12.29117659	     -5.29279028	     -2.86005589	     14.52595185	     -4.20227222	     -2.88667887	     -2.35144473	    -19.43910554	      8.26558126	     -2.51406970	     -4.79754109	      5.68777399	      4.50285606	    -13.06712095
      3.05500000	    -10.99491250	     -3.28121896	      8.41189163	     -1.78817882	     -0.04397265	     -0.29111225	     36.02052715	     -3.41187560	    -15.99081187	    -12.77806060	     -6.51647845	     -3.54963681	     14.66665975	     -4.12751631	     -3.49758385	     -2.84840886	    -20.31253189	      7.47026492	     -2.01896252	     -4.11797822	      5.96095061	      4.89019388	    -12.78204840
      3.06000000	    -11.10575388	     -3.69308773	      8.35983900	     -1.77952424	     -0.04438171	     -0.29026805	     36.07431152	     -2.94224202	    -15.86031056	    -13.28126933	     -7.74544737	     -4.29703774	     14.50871980	     -3.86783627	     -4.16373895	     -3.07042697	    -21.34268730	      6.62930661	     -1.57483230	     -3.80585934	      6.29599014	      5.30285069	    -12.77727490
      3.06500000	    -11.20785954	     -4.10783510	      8.12341731	     -1.77081001	     -0.04470932	     -0.28917560	     36.14817834	     -2.34264824	    -15.48247701	    -13.81050120	     -8.98995455	     -5.20347345	     14.23321904	     -3.61917413	     -4.84301585	     -3.51292475	    -22.40248788	      5.64429492	     -1.11540938	     -3.36433899	      6.61186530	      5.74307715	    -12.55195421
      3.07000000	    -11.23001002	     -4.56106079	      7.83075232	     -1.76204965	     -0.04481927	     -0.28803084	     36.14517509	     -1.65688442	    -15.03165512	    -14.40127077	     -9.98777072	     -6.02965640	     13.16245964	     -3.46184593	     -5.59190935	     -4.05468616	    -23.34084045	      3.80062638	     -0.99152817	      0.10720591	      6.84682762	      6.25327609	    -12.26061268
      3.07500000	    -11.38030790	     -4.96410045	      7.59583325	     -1.75342739	     -0.04496600	     -0.28698019	     36.29389112	     -1.08520057	    -14.60442868	    -15.03597725	    -10.94842694	     -6.93171254	     12.78289741	     -3.03047393	     -6.25472121	     -4.42803847	    -24.59272262	      2.61575945	     -0.58881833	      0.11893066	      7.20275428	      6.68696175	    -12.06817456
      3.08000000	    -11.48450285	     -5.33396531	      7.26495513	     -1.74479571	     -0.04498359	     -0.28577972	     36.39681481	     -0.46484630	    -14.03927456	    -15.70054218	    -11.73883923	     -7.85928195	     12.26904835	     -2.63394896	     -6.89830839	     -4.90832857	    -25.87235518	      1.20760253	     -0.24355575	      0.32810637	      7.48954961	      7.10864314	    -11.76792704
      3.08500000	    -11.51936632	     -5.73712823	      6.90673450	     -1.73610097	     -0.04482734	     -0.28449312	     36.41560061	      0.22377761	    -13.46263946	    -16.44776475	    -11.89193523	     -8.39557053	      9.93986030	     -2.30074638	     -7.61207076	     -5.44439236	    -27.05713037	     -0.99996667	     -0.21645912	      3.28942965	      7.71060389	      7.57024744	    -11.44119893
      3.09000000	    -11.62397583	     -6.02291883	      6.59336743	     -1.72758585	     -0.04468752	     -0.28330661	     36.50006858	      0.74859721	    -12.99549250	    -17.14582598	    -12.27418465	     -9.13918882	      9.69875171	     -1.77778587	     -8.16312810	     -5.81273739	    -28.49421455	     -2.68620353	     -0.04877682	      3.16328404	      7.96941578	      7.90206315	    -11.15525131
      3.09500000	    -11.70717102	     -6.27470663	      6.22603836	     -1.71907710	     -0.04447321	     -0.28203468	     36.53374319	      1.28332934	    -12.48332284	    -17.82295758	    -12.43944061	     -9.73043216	      9.46766447	     -1.24699000	     -8.68751877	     -6.22031856	    -29.96612132	     -4.53823497	      0.04076330	      3.18892949	      8.18847383	      8.21087376	    -10.81938556
      3.10000000	    -11.76873568	     -6.54594563	      5.89529794	     -1.71056384	     -0.04420575	     -0.28074943	     36.50623757	      1.82106706	    -12.09785887	    -18.48490889	    -12.19914610	    -10.06655060	      8.62344626	     -0.68851640	     -9.25100198	     -6.58509226	    -31.40169773	     -6.95039974	     -0.18441589	      5.19808058	      8.39103930	      8.52827175	    -10.54038587
      3.10500000	    -11.78428606	     -6.72659876	      5.52455457	     -1.70219048	     -0.04384933	     -0.27946944	     36.39806023	      2.29809455	    -11.69793773	    -19.08303600	    -11.97294567	    -10.37191443	      8.68868233	     -0.12930352	     -9.69319487	     -6.90631632	    -32.97377821	     -8.90969781	     -0.34404014	      4.88920592	      8.50188792	      8.77284255	    -10.20063329
      3.11000000	    -11.82494166	     -6.89890937	      5.16486727	     -1.69389795	     -0.04350443	     -0.27820463	     36.28115707	      2.75327114	    -11.37459367	    -19.63013411	    -11.61920351	    -10.57417238	      8.86112391	      0.52105839	    -10.11559055	     -7.15851409	    -34.60234675	    -10.85781032	     -0.63958014	      4.59981595	      8.62783339	      9.00624827	     -9.87819740
      3.11500000	    -11.86538416	     -7.05398176	      4.80143262	     -1.68571675	     -0.04313895	     -0.27693758	     36.12893199	      3.19046872	    -11.10187877	    -20.12301066	    -11.16980678	    -10.67520488	      9.15121381	      1.22098947	    -10.50351525	     -7.35113419	    -36.26707612	    -12.74363037	     -1.09054705	      4.27229182	      8.72993161	      9.22097604	     -9.55658957
      3.12000000	    -11.89634955	     -7.21299974	      4.43964196	     -1.67767218	     -0.04274150	     -0.27574101	     35.93138293	      3.62100373	    -10.89311566	    -20.55234030	    -10.67509291	    -10.68434960	      9.52584117	      1.96444284	    -10.87376860	     -7.48255244	    -37.97160714	    -14.49912286	     -1.69215728	      3.87493489	      8.79865338	      9.45443077	     -9.23394767
      3.12500000	    -11.94507570	     -7.35612019	      4.08246408	     -1.66975723	     -0.04238459	     -0.27458461	     35.72434916	      4.02649424	    -10.70937260	    -20.93923431	    -10.09799532	    -10.64222680	     10.04108994	      2.77698192	    -11.19425051	     -7.53716477	    -39.71455369	    -16.07234795	     -2.48502652	      3.39783265	      8.86673530	      9.66956788	     -8.89488199
      3.13000000	    -12.04566076	     -7.52421837	      3.76125730	     -1.66191722	     -0.04208380	     -0.27353111	     35.51624302	      4.40934798	    -10.65007676	    -21.15567232	     -9.94173047	    -10.81791033	     12.80110017	      3.72590518	    -11.51575378	     -7.51323108	    -41.56124794	    -17.18468386	     -3.28214686	      1.88959058	      8.98850997	      9.90156146	     -8.64232772
      3.13500000	    -12.02353800	     -7.70203777	      3.36869187	     -1.65423521	     -0.04162435	     -0.27238090	     35.16666359	      4.87702684	    -10.49569424	    -21.42098491	     -9.31470260	    -10.68613203	     13.07800517	      4.52763088	    -11.84481670	     -7.56541497	    -43.32438794	    -18.44952494	     -4.43629998	      1.46432137	      8.93075199	     10.16896248	     -8.24654813
      3.14000000	    -12.11208300	     -7.86552460	      3.00900347	     -1.64662604	     -0.04128248	     -0.27130521	     34.90583118	      5.28962991	    -10.35093371	    -21.64875487	     -8.61567644	    -10.44092335	     13.55489405	      5.51269713	    -12.12224040	     -7.53719351	    -45.12474989	    -19.54800300	     -5.77828930	      0.89174719	      8.99337238	     10.40660646	     -7.94807554
      3.14500000	    -12.22712540	     -8.04520404	      2.63101170	     -1.63917220	     -0.04096821	     -0.27030515	     34.66368997	      5.70473817	    -10.26820486	    -21.83858702	     -8.00692823	    -10.14432873	     14.31850066	      6.57280192	    -12.39740783	     -7.51178494	    -46.96001894	    -20.40925131	     -7.24994750	      0.00402324	      9.05310783	     10.67463944	     -7.59287346
      3.15000000	    -12.30329715	     -8.24642603	      2.27247597	     -1.63174756	     -0.04058129	     -0.26934426	     34.33505285	      6.14683712	    -10.16213573	    -21.94637907	     -7.45362782	     -9.94951630	     15.09796771	      7.61749126	    -12.68282671	     -7.48128217	    -48.76859033	    -21.14539801	     -8.91946183	     -1.10536127	      9.07106194	     10.96119865	     -7.25776641
      3.15500000	    -12.30218608	     -8.53047481	      1.96993420	     -1.62431210	     -0.04003485	     -0.26839858	     33.86162789	      6.67575344	    -10.03830982	    -21.93842423	     -6.98922215	     -9.91498299	     15.41543970	      8.61007008	    -13.05654688	     -7.39854255	    -50.51911923	    -21.90413363	    -10.73870779	     -1.82788850	      9.02263160	     11.31561149	     -6.97822139
      3.16000000	    -12.43234582	     -8.74879738	      1.65624680	     -1.61696951	     -0.03967909	     -0.26763314	     33.53984567	      7.08797429	     -9.99382991	    -21.93551079	     -6.58955251	     -9.77824702	     16.92136610	      9.81284684	    -13.32825835	     -7.35613063	    -52.40393234	    -21.63658287	    -12.28504785	     -5.69675728	      9.10161630	     11.61703923	     -6.68076293
      3.16500000	    -12.44004661	     -8.94448204	      1.30823348	     -1.60959941	     -0.03909283	     -0.26669260	     33.04671404	      7.55094715	     -9.77179608	    -21.91193567	     -6.02527740	     -9.61437556	     17.08283285	     10.79955397	    -13.59755088	     -7.37677835	    -54.01015580	    -22.19123371	    -14.28826183	     -6.37100341	      9.03965754	     11.88508858	     -6.33922554
